<svg version="1.1" xmlns="http://www.w3.org/2000/svg" xmlns:xlink="http://www.w3.org/1999/xlink" width="12" height="19"><defs/><g><path fill="rgb(255,255,255)" stroke="none" paint-order="stroke fill markers" fill-rule="evenodd" d=" M 3.149556040763855 1.9050173163414001 C 3.149556040763855 1.9050173163414001 1.5655998587608337 3.5069133043289185 1.5655998587608337 3.5069133043289185 C 1.5655998587608337 3.5069133043289185 4.427561581134796 6.405156433582306 4.427561581134796 6.405156433582306 C 4.427561581134796 6.405156433582306 1.5475620031356812 9.338948786258698 1.5475620031356812 9.338948786258698 C 1.5475620031356812 9.338948786258698 3.1316299438476562 10.941062867641449 3.1316299438476562 10.941062867641449 C 3.1316299438476562 10.941062867641449 5.993591666221619 8.006834328174591 5.993591666221619 8.006834328174591 C 5.993591666221619 8.006834328174591 8.873591244220734 10.941062867641449 8.873591244220734 10.941062867641449 C 8.873591244220734 10.941062867641449 10.421605825424194 9.338948786258698 10.421605825424194 9.338948786258698 C 10.421605825424194 9.338948786258698 7.57754784822464 6.405156433582306 7.57754784822464 6.405156433582306 C 7.57754784822464 6.405156433582306 10.403590321540833 3.5069133043289185 10.403590321540833 3.5069133043289185 C 10.403590321540833 3.5069133043289185 8.855575740337372 1.9050173163414001 8.855575740337372 1.9050173163414001 C 8.855575740337372 1.9050173163414001 5.993591666221619 4.839027762413025 5.993591666221619 4.839027762413025 C 5.993591666221619 4.839027762413025 3.149556040763855 1.9050173163414001 3.149556040763855 1.9050173163414001 Z M 5.824523091316223 17.771311819553375 C 5.824523091316223 17.771311819553375 5.824523091316223 17.771311819553375 5.824523091316223 17.771311819553375"/></g></svg>