<svg version="1.1" xmlns="http://www.w3.org/2000/svg" xmlns:xlink="http://www.w3.org/1999/xlink" width="46" height="46"><defs/><g><path fill="rgb(72,77,82)" stroke="none" paint-order="stroke fill markers" fill-rule="evenodd" d=" M 37.67390060424805 13.961121082305908 C 36.9678955078125 18.71199095249176 30.38534927368164 19.66176474094391 30.38534927368164 18.117270708084106 C 30.38534927368164 16.572999000549316 30.857418060302734 7.668647408485413 28.388832092285156 6.955872416496277 C 25.920150756835938 6.242652773857117 26.860092163085938 2.562723994255066 25.565479278564453 2.204335570335388 C 24.59292221069336 1.9384344816207886 23.487232208251953 2.004242777824402 22.999332427978516 2.053821325302124 C 22.511432647705078 2.004242777824402 21.405742645263672 1.9384344816207886 20.43328094482422 2.204335570335388 C 19.138572692871094 2.562723994255066 20.078609466552734 6.242652773857117 17.609928131103516 6.955872416496277 C 15.142105102539062 7.668647408485413 15.61331558227539 16.572999000549316 15.61331558227539 18.117270708084106 C 15.61331558227539 19.66176474094391 9.030864715576172 18.71199095249176 8.324764251708984 13.961121082305908 C 7.6187591552734375 9.212919116020203 1.742218017578125 20.730037927627563 7.502124786376953 25.35951817035675 C 12.72177505493164 29.55524170398712 21.412418365478516 29.561911463737488 22.999332427978516 29.52589476108551 C 24.586341857910156 29.561911463737488 33.27698516845703 29.55524170398712 38.49654006958008 25.35951817035675 C 44.256446838378906 20.730037927627563 38.380001068115234 9.212919116020203 37.67390060424805 13.961121082305908 C 37.67390060424805 13.961121082305908 37.67390060424805 13.961121082305908 37.67390060424805 13.961121082305908 Z M 17.848060607910156 16.603235244750977 C 17.36016082763672 16.603235244750977 16.966293334960938 16.205272912979126 16.966293334960938 15.712599992752075 C 16.966293334960938 15.223039627075195 17.36016082763672 14.82152009010315 17.848060607910156 14.82152009010315 C 18.332622528076172 14.82152009010315 18.72896957397461 15.223039627075195 18.72896957397461 15.712599992752075 C 18.72896957397461 16.205272912979126 18.332622528076172 16.603235244750977 17.848060607910156 16.603235244750977 C 17.848060607910156 16.603235244750977 17.848060607910156 16.603235244750977 17.848060607910156 16.603235244750977 Z M 21.018646240234375 17.315565586090088 C 20.53398895263672 17.315565586090088 20.137737274169922 16.918492555618286 20.137737274169922 16.425819635391235 C 20.137737274169922 15.93270206451416 20.53398895263672 15.534962058067322 21.018646240234375 15.534962058067322 C 21.506546020507812 15.534962058067322 21.900318145751953 15.936259269714355 21.900318145751953 16.425819635391235 C 21.900318145751953 16.918492555618286 21.506546020507812 17.315565586090088 21.018646240234375 17.315565586090088 C 21.018646240234375 17.315565586090088 21.018646240234375 17.315565586090088 21.018646240234375 17.315565586090088 Z M 25.249908447265625 17.315565586090088 C 24.76534652709961 17.315565586090088 24.368999481201172 16.918492555618286 24.368999481201172 16.425819635391235 C 24.368999481201172 15.93270206451416 24.76534652709961 15.534962058067322 25.249908447265625 15.534962058067322 C 25.737808227539062 15.534962058067322 26.131580352783203 15.936259269714355 26.131580352783203 16.425819635391235 C 26.131580352783203 16.918492555618286 25.737808227539062 17.315565586090088 25.249908447265625 17.315565586090088 C 25.249908447265625 17.315565586090088 25.249908447265625 17.315565586090088 25.249908447265625 17.315565586090088 Z M 28.42459487915039 16.603235244750977 C 27.936695098876953 16.603235244750977 27.542827606201172 16.205272912979126 27.542827606201172 15.712599992752075 C 27.542827606201172 15.223039627075195 27.940032958984375 14.82152009010315 28.42459487915039 14.82152009010315 C 28.912494659423828 14.82152009010315 29.305503845214844 15.223039627075195 29.305503845214844 15.712599992752075 C 29.305503845214844 16.205272912979126 28.912494659423828 16.603235244750977 28.42459487915039 16.603235244750977 C 28.42459487915039 16.603235244750977 28.42459487915039 16.603235244750977 28.42459487915039 16.603235244750977 Z M 28.42459487915039 16.603235244750977 C 28.42459487915039 16.603235244750977 28.42459487915039 16.603235244750977 28.42459487915039 16.603235244750977 M 28.216407775878906 37.818851709365845 C 28.37548065185547 35.20008170604706 27.63695526123047 33.80076611042023 26.785228729248047 33.051085114479065 C 26.420543670654297 32.321858048439026 25.701950073242188 31.812955379486084 24.853561401367188 31.749814987182617 C 24.853561401367188 31.90121853351593 24.830291748046875 32.04928719997406 24.79443359375 32.19402098655701 C 24.6387939453125 32.811418414115906 24.179981231689453 33.30075645446777 23.588035583496094 33.50107157230377 C 23.48389434814453 33.53708827495575 23.37984848022461 33.56421196460724 23.272464752197266 33.579997062683105 C 23.18167495727539 33.59355890750885 23.093460083007812 33.606231451034546 22.999332427978516 33.606231451034546 C 22.90530014038086 33.606231451034546 22.81698989868164 33.59355890750885 22.726295471191406 33.579997062683105 C 22.618816375732422 33.56421196460724 22.5147705078125 33.53708827495575 22.410724639892578 33.50107157230377 C 21.81877899169922 33.30075645446777 21.359966278076172 32.811418414115906 21.20423126220703 32.19402098655701 C 21.168468475341797 32.04928719997406 21.14596176147461 31.90121853351593 21.14596176147461 31.749814987182617 C 20.296714782714844 31.812955379486084 19.578216552734375 32.321858048439026 19.213531494140625 33.051085114479065 C 18.361804962158203 33.80076611042023 17.623279571533203 35.20008170604706 17.782257080078125 37.818851709365845 C 18.130348205566406 43.605090618133545 15.13876724243164 42.72090280056 15.13876724243164 42.72090280056 C 15.13876724243164 42.72090280056 21.015308380126953 44.659801959991455 22.999332427978516 38.39067244529724 C 24.98345184326172 44.659801959991455 30.85989761352539 42.72090280056 30.85989761352539 42.72090280056 C 30.85989761352539 42.72090280056 27.868412017822266 43.60153341293335 28.216407775878906 37.818851709365845 C 28.216407775878906 37.818851709365845 28.216407775878906 37.818851709365845 28.216407775878906 37.818851709365845 Z M 28.216407775878906 37.818851709365845 C 28.216407775878906 37.818851709365845 28.216407775878906 37.818851709365845 28.216407775878906 37.818851709365845"/></g></svg>