<svg version="1.1" xmlns="http://www.w3.org/2000/svg" xmlns:xlink="http://www.w3.org/1999/xlink" width="56" height="37"><defs/><g><path fill="rgb(72,77,82)" stroke="none" paint-order="stroke fill markers" fill-rule="evenodd" d=" M 40.463687896728516 6.717317342758179 C 40.463687896728516 9.324971079826355 38.33127212524414 11.442619800567627 35.70094299316406 11.442619800567627 C 33.070518493652344 11.442619800567627 30.93819808959961 9.324971079826355 30.93819808959961 6.717317342758179 C 30.93819808959961 4.109885931015015 33.070518493652344 1.9962390661239624 35.70094299316406 1.9962390661239624 C 38.33127212524414 1.9962390661239624 40.463687896728516 4.109885931015015 40.463687896728516 6.717317342758179 C 40.463687896728516 6.717317342758179 40.463687896728516 6.717317342758179 40.463687896728516 6.717317342758179 Z M 40.463687896728516 6.717317342758179 C 40.463687896728516 6.717317342758179 40.463687896728516 6.717317342758179 40.463687896728516 6.717317342758179 M 12.832595825195312 18.92342233657837 C 12.832595825195312 20.229805946350098 11.766864776611328 21.286073565483093 10.45327377319336 21.286073565483093 C 9.13653564453125 21.286073565483093 8.06985092163086 20.229805946350098 8.06985092163086 18.92342233657837 C 8.06985092163086 17.622374534606934 9.13653564453125 16.560993432998657 10.45327377319336 16.560993432998657 C 11.766864776611328 16.560993432998657 12.832595825195312 17.622374534606934 12.832595825195312 18.92342233657837 C 12.832595825195312 18.92342233657837 12.832595825195312 18.92342233657837 12.832595825195312 18.92342233657837 Z M 12.832595825195312 18.92342233657837 C 12.832595825195312 18.92342233657837 12.832595825195312 18.92342233657837 12.832595825195312 18.92342233657837 M 6.286098480224609 34.56067407131195 C 9.481002807617188 34.56067407131195 14.327766418457031 33.74096059799194 19.005443572998047 32.676466941833496 C 21.17409896850586 34.729418992996216 24.10845947265625 35.99978590011597 27.342845916748047 35.99978590011597 C 33.31752014160156 35.99978590011597 38.271095275878906 31.700458765029907 39.247562408447266 26.05561876296997 C 47.613956451416016 22.648038506507874 54.04620361328125 19.07660448551178 52.88310241699219 15.396675705909729 C 52.87480545043945 15.371775269508362 52.86650848388672 15.343984603881836 52.858116149902344 15.323530673980713 C 52.46491622924805 14.383539199829102 51.265384674072266 13.966012239456177 48.9670295715332 13.966012239456177 C 44.901611328125 13.966012239456177 38.56272888183594 15.271061897277832 38.2950325012207 15.327532529830933 C 37.85710525512695 15.416018009185791 37.55727005004883 15.818204522132874 37.59770584106445 16.259520292282104 C 37.63814163208008 16.701725363731384 38.00759506225586 17.043217062950134 38.452674865722656 17.051443099975586 C 41.26572799682617 17.11947464942932 43.68968200683594 17.721976280212402 43.982269287109375 18.20842409133911 C 43.69797897338867 18.847164750099182 41.75658416748047 20.016818284988403 39.117862701416016 21.302525639533997 C 37.87789535522461 15.99117362499237 33.083011627197266 12.020665645599365 27.342845916748047 12.020665645599365 C 20.663597106933594 12.020665645599365 15.25235366821289 17.388932943344116 15.25235366821289 24.01067042350769 C 15.25235366821289 25.81083858013153 15.666343688964844 27.51407289505005 16.383316040039062 29.0485622882843 C 15.049983978271484 29.29334247112274 13.813163757324219 29.45519530773163 12.816001892089844 29.45519530773163 C 11.875869750976562 29.45519530773163 11.397506713867188 29.314018726348877 11.158897399902344 29.201077461242676 C 11.223175048828125 28.915834069252014 11.637165069580078 27.931822180747986 14.324714660644531 26.083409428596497 C 14.567520141601562 25.927114725112915 14.725162506103516 25.65765643119812 14.725162506103516 25.347957253456116 C 14.725162506103516 24.873737335205078 14.3443603515625 24.47688663005829 13.870193481445312 24.47688663005829 C 13.870193481445312 24.47688663005829 13.846351623535156 24.47688663005829 13.846351623535156 24.47688663005829 C 13.817264556884766 24.47688663005829 13.789226531982422 24.48088848590851 13.761283874511719 24.48400104045868 C 13.712455749511719 24.4880028963089 13.66372299194336 24.49622893333435 13.619091033935547 24.508679151535034 C 12.613632202148438 24.753459334373474 4.633190155029297 26.78684675693512 2.5216598510742188 30.262458562850952 C 2.0059127807617188 31.110185027122498 1.8606681823730469 31.989481687545776 2.0837326049804688 32.869889974594116 C 2.4770278930664062 34.387927293777466 4.669525146484375 34.56067407131195 6.286098480224609 34.56067407131195 C 6.286098480224609 34.56067407131195 6.286098480224609 34.56067407131195 6.286098480224609 34.56067407131195 Z M 6.286098480224609 34.56067407131195 C 6.286098480224609 34.56067407131195 6.286098480224609 34.56067407131195 6.286098480224609 34.56067407131195"/></g></svg>