<svg version="1.1" xmlns="http://www.w3.org/2000/svg" xmlns:xlink="http://www.w3.org/1999/xlink" width="41" height="42"><defs/><g><path fill="rgb(72,77,82)" stroke="none" paint-order="stroke fill markers" fill-rule="evenodd" d=" M 37.925453186035156 33.83506214618683 C 37.925453186035156 33.83506214618683 25.202293395996094 21.27345895767212 25.202293395996094 21.27345895767212 C 25.083274841308594 21.154070258140564 24.95738983154297 21.049132704734802 24.824066162109375 20.95108723640442 C 24.824066162109375 20.95108723640442 27.078838348388672 18.61022388935089 27.078838348388672 18.61022388935089 C 27.19289779663086 18.494837045669556 27.30142593383789 18.37322509288788 27.403087615966797 18.251168489456177 C 30.394287109375 19.36546301841736 33.903236389160156 18.73917257785797 36.308021545410156 16.3647381067276 C 38.061161041259766 14.633490800857544 38.947696685791016 12.237713098526001 38.73197555541992 9.79080057144165 C 38.71023178100586 9.51578414440155 38.5236930847168 9.27700674533844 38.259525299072266 9.180962204933167 C 37.995452880859375 9.085362315177917 37.697906494140625 9.152282238006592 37.499542236328125 9.348817825317383 C 37.499542236328125 9.348817825317383 33.42334747314453 13.37290620803833 33.42334747314453 13.37290620803833 C 33.42334747314453 13.37290620803833 29.294509887695312 12.344651579856873 29.294509887695312 12.344651579856873 C 29.294509887695312 12.344651579856873 28.12530517578125 8.140924334526062 28.12530517578125 8.140924334526062 C 28.12530517578125 8.140924334526062 32.20083236694336 4.1166136264801025 32.20083236694336 4.1166136264801025 C 32.39919662475586 3.918299436569214 32.46490478515625 3.626163959503174 32.37010955810547 3.365598678588867 C 32.273406982421875 3.1030324697494507 32.030982971191406 2.9211703538894653 31.750125885009766 2.897159218788147 C 29.275341033935547 2.686617136001587 26.848812103271484 3.5594663619995117 25.095672607421875 5.29093599319458 C 22.69336700439453 7.662702560424805 22.056026458740234 11.127642750740051 23.182506561279297 14.080790042877197 C 23.061580657958984 14.18372666835785 22.937602996826172 14.291332125663757 22.819252014160156 14.408275246620178 C 22.819252014160156 14.408275246620178 19.503707885742188 17.552844643592834 19.503707885742188 17.552844643592834 C 19.503707885742188 17.552844643592834 13.413352966308594 11.539166927337646 13.413352966308594 11.539166927337646 C 13.335914611816406 11.46491026878357 13.255901336669922 11.397768020629883 13.171024322509766 11.335739254951477 C 13.244171142578125 11.211681723594666 13.314170837402344 11.084733963012695 13.376827239990234 10.953339695930481 C 14.665718078613281 11.19700825214386 17.014617919921875 8.724528312683105 19.012088775634766 6.754281282424927 C 19.012088775634766 6.754281282424927 13.195152282714844 1.0080609321594238 13.195152282714844 1.0080609321594238 C 10.594482421875 3.5761407613754272 8.693714141845703 5.300495982170105 8.94052505493164 6.572641491889954 C 8.344764709472656 6.858996510505676 7.8147125244140625 7.208714246749878 7.43896484375 7.581553816795349 C 7.43896484375 7.581553816795349 6.618137359619141 8.38948404788971 6.618137359619141 8.38948404788971 C 6.088085174560547 8.915950417518616 5.765743255615234 9.570920825004578 5.652256011962891 10.252347946166992 C 5.572338104248047 10.341055750846863 5.4923248291015625 10.436655640602112 5.412406921386719 10.536924362182617 C 5.412406921386719 10.536924362182617 5.104846954345703 10.917100667953491 5.104846954345703 10.917100667953491 C 5.097408294677734 10.926882982254028 5.07080078125 10.963122010231018 5.063362121582031 10.972015023231506 C 5.063362121582031 10.972015023231506 4.787464141845703 11.354859232902527 4.787464141845703 11.354859232902527 C 4.613227844238281 11.584521293640137 4.463214874267578 11.830413103103638 4.3151092529296875 12.069857478141785 C 4.261798858642578 12.158565282821655 4.2060089111328125 12.249051690101624 4.150791168212891 12.337981820106506 C 4.140872955322266 12.351988315582275 4.133434295654297 12.366217136383057 4.126567840576172 12.383113861083984 C 4.126567840576172 12.383113861083984 4.002590179443359 12.610552668571472 4.002590179443359 12.610552668571472 C 3.8525772094726562 12.885124444961548 3.700084686279297 13.172146439552307 3.566761016845703 13.485847473144531 C 3.566761016845703 13.485847473144531 3.5451126098632812 13.53609299659729 3.5451126098632812 13.53609299659729 C 3.3901405334472656 13.898927927017212 3.2277297973632812 14.277325630187988 3.1167221069335938 14.678845167160034 C 3.1167221069335938 14.678845167160034 3.060932159423828 14.850924968719482 3.060932159423828 14.850924968719482 C 3.0175399780273438 14.994102478027344 2.9710006713867188 15.137946963310242 2.9300880432128906 15.307358860969543 C 2.9300880432128906 15.307358860969543 2.816028594970703 15.860281944274902 2.816028594970703 15.860281944274902 C 2.734203338623047 16.20666480064392 2.7051162719726562 16.546377897262573 2.6808929443359375 16.847628712654114 C 2.6808929443359375 16.847628712654114 2.6635360717773438 17.046165227890015 2.6635360717773438 17.046165227890015 C 2.6226234436035156 17.359643936157227 2.6343536376953125 17.655558943748474 2.644367218017578 17.916346549987793 C 2.6493263244628906 18.00283110141754 2.651805877685547 18.088648676872253 2.656097412109375 18.2060364484787 C 2.6585769653320312 18.25361406803131 2.6585769653320312 18.2989684343338 2.6610565185546875 18.346990704536438 C 2.6635360717773438 18.46193289756775 2.666015625 18.595328092575073 2.6877593994140625 18.734503746032715 C 2.6877593994140625 18.734503746032715 2.7602386474609375 19.18115532398224 2.7602386474609375 19.18115532398224 C 2.775115966796875 19.26986312866211 2.7869415283203125 19.353902101516724 2.7993392944335938 19.434828519821167 C 2.8284263610839844 19.61646831035614 2.8551292419433594 19.80566716194153 2.910919189453125 19.982638120651245 C 2.910919189453125 19.982638120651245 3.208465576171875 21.0035560131073 3.208465576171875 21.0035560131073 C 3.3008766174316406 21.312143564224243 3.5984230041503906 21.517794489860535 3.9226722717285156 21.496451258659363 C 4.097480773925781 21.48422336578369 4.252452850341797 21.409966707229614 4.365940093994141 21.295024514198303 C 4.470081329345703 21.194533467292786 4.542560577392578 21.06113827228546 4.564876556396484 20.908178448677063 C 4.564876556396484 20.908178448677063 4.717464447021484 19.872587084770203 4.717464447021484 19.872587084770203 C 4.729194641113281 19.78854811191559 4.765815734863281 19.669159412384033 4.801769256591797 19.542433977127075 C 4.828376770019531 19.45417082309723 4.855079650878906 19.363017439842224 4.874916076660156 19.286537528038025 C 4.874916076660156 19.286537528038025 4.983348846435547 18.899024486541748 4.983348846435547 18.899024486541748 C 4.998226165771484 18.846555709838867 5.022449493408203 18.79631018638611 5.046577453613281 18.743619084358215 C 5.068321228027344 18.69581913948059 5.089969635009766 18.645573616027832 5.109806060791016 18.595328092575073 C 5.145759582519531 18.513957023620605 5.179901123046875 18.43080735206604 5.213947296142578 18.346990704536438 C 5.281562805175781 18.181580662727356 5.346698760986328 18.02684223651886 5.443973541259766 17.87366008758545 C 5.484886169433594 17.801404356956482 5.525798797607422 17.732261180877686 5.564899444580078 17.660672426223755 C 5.666561126708984 17.481478214263916 5.763263702392578 17.31162166595459 5.877323150634766 17.170222759246826 C 5.886669158935547 17.163108348846436 5.891628265380859 17.153770685195923 5.899066925048828 17.143988370895386 C 5.899066925048828 17.143988370895386 6.158180236816406 16.790046453475952 6.158180236816406 16.790046453475952 C 6.211490631103516 16.725794434547424 6.272239685058594 16.66087543964386 6.329936981201172 16.599068999290466 C 6.371421813964844 16.55326998233795 6.412334442138672 16.510361194610596 6.463165283203125 16.4503333568573 C 6.615657806396484 16.268693566322327 6.794853210449219 16.111064910888672 6.969661712646484 15.955881834030151 C 6.969661712646484 15.955881834030151 7.061405181884766 15.87206518650055 7.061405181884766 15.87206518650055 C 7.189769744873047 15.755122065544128 7.337303161621094 15.644626379013062 7.494754791259766 15.527905583381653 C 7.5579833984375 15.479660987854004 7.620639801025391 15.434306621551514 7.683868408203125 15.388952255249023 C 7.7613067626953125 15.33626115322113 7.838840484619141 15.286015629768372 7.9138946533203125 15.235992431640625 C 8.054561614990234 15.14283812046051 8.175487518310547 15.061467051506042 8.315582275390625 14.9896559715271 C 8.315582275390625 14.9896559715271 8.623714447021484 14.817131519317627 8.623714447021484 14.817131519317627 C 8.623714447021484 14.817131519317627 8.933658599853516 14.666617274284363 8.933658599853516 14.666617274284363 C 9.042186737060547 14.611480593681335 9.148807525634766 14.56857180595398 9.247989654541016 14.530776500701904 C 9.306259155273438 14.504319787025452 9.36452865600586 14.48297655582428 9.417839050292969 14.458520770072937 C 9.471149444580078 14.439400792121887 9.524459838867188 14.42050313949585 9.572811126708984 14.401605486869812 C 9.640426635742188 14.377594351768494 9.69869613647461 14.355806469917297 9.776134490966797 14.334240913391113 C 9.776134490966797 14.334240913391113 9.858627319335938 14.317566514015198 9.858627319335938 14.317566514015198 C 9.950370788574219 14.463411927223206 10.056991577148438 14.602142930030823 10.185356140136719 14.729090690612793 C 10.185356140136719 14.729090690612793 16.210575103759766 20.67629313468933 16.210575103759766 20.67629313468933 C 16.210575103759766 20.67629313468933 3.3517074584960938 32.87328279018402 3.3517074584960938 32.87328279018402 C 3.3467483520507812 32.87817394733429 3.3417892456054688 32.88306510448456 3.3368301391601562 32.88795626163483 C 1.7360877990722656 34.46868932247162 1.4744949340820312 36.78065037727356 3.0751419067382812 38.36138343811035 C 4.675884246826172 39.94189417362213 6.869907379150391 39.53792905807495 8.47055435180664 37.95741832256317 C 8.47799301147461 37.949859261512756 8.482952117919922 37.945635080337524 8.49039077758789 37.93829834461212 C 8.49039077758789 37.93829834461212 19.83539581298828 26.14193892478943 19.83539581298828 26.14193892478943 C 19.901103973388672 26.21864116191864 19.96623992919922 26.29734432697296 20.04119873046875 26.369377732276917 C 20.04119873046875 26.369377732276917 32.76254653930664 38.932981848716736 32.76254653930664 38.932981848716736 C 34.18657302856445 40.339189529418945 36.49894714355469 40.339189529418945 37.925453186035156 38.932981848716736 C 39.34947967529297 37.524550914764404 39.34947967529297 35.24126982688904 37.925453186035156 33.83506214618683 C 37.925453186035156 33.83506214618683 37.925453186035156 33.83506214618683 37.925453186035156 33.83506214618683 Z M 6.809730529785156 36.654147267341614 C 6.220741271972656 37.237528920173645 5.264873504638672 37.237528920173645 4.675884246826172 36.654147267341614 C 4.087562561035156 36.07321119308472 4.087562561035156 35.12855088710785 4.675884246826172 34.54761481285095 C 5.264873504638672 33.96690106391907 6.220741271972656 33.96690106391907 6.809730529785156 34.54761481285095 C 7.398052215576172 35.12855088710785 7.398052215576172 36.07321119308472 6.809730529785156 36.654147267341614 C 6.809730529785156 36.654147267341614 6.809730529785156 36.654147267341614 6.809730529785156 36.654147267341614 Z M 6.809730529785156 36.654147267341614 C 6.809730529785156 36.654147267341614 6.809730529785156 36.654147267341614 6.809730529785156 36.654147267341614"/></g></svg>