<svg version="1.1" xmlns="http://www.w3.org/2000/svg" xmlns:xlink="http://www.w3.org/1999/xlink" width="41" height="41"><defs/><g><path fill="rgb(253,253,255)" stroke="none" paint-order="stroke fill markers" fill-rule="evenodd" d=" M 11.092769622802734 26.200594425201416 C 10.556709289550781 25.665679693222046 10.3551025390625 25.934471011161804 10.235893249511719 26.053415060043335 C 7.151329040527344 29.132843136787415 4.4129486083984375 36.5634001493454 5.860816955566406 35.837730288505554 C 11.130821228027344 33.19606077671051 12.008773803710938 33.982203125953674 15.093147277832031 30.90321969985962 C 15.212642669677734 30.78427565097809 15.48672866821289 30.58796238899231 14.935314178466797 30.037484884262085 C 14.935314178466797 30.037484884262085 11.092769622802734 26.200594425201416 11.092769622802734 26.200594425201416 Z M 11.092769622802734 26.200594425201416 C 11.092769622802734 26.200594425201416 11.092769622802734 26.200594425201416 11.092769622802734 26.200594425201416 M 27.720176696777344 26.159241914749146 C 27.580272674560547 25.715258240699768 27.87352752685547 25.500936627388 27.996456146240234 25.3679860830307 C 34.80426025390625 18.03036105632782 39.130794525146484 8.253382563591003 35.92435073852539 5.052120208740234 C 32.73554992675781 1.8684215545654297 23.244964599609375 6.313816428184509 15.89719009399414 13.062279343605042 C 15.75204086303711 13.195674538612366 15.465652465820312 13.44890308380127 14.952766418457031 13.341964602470398 C 14.952766418457031 13.341964602470398 12.663471221923828 12.797712206840515 12.663471221923828 12.797712206840515 C 12.028324127197266 12.646753311157227 11.129772186279297 12.900204181671143 10.66790771484375 13.361529231071472 C 10.66790771484375 13.361529231071472 2.267658233642578 21.748085141181946 2.267658233642578 21.748085141181946 C 1.8057937622070312 22.209410190582275 1.9559974670410156 22.67006826400757 2.6014442443847656 22.77100396156311 C 2.6014442443847656 22.77100396156311 8.676921844482422 23.724112629890442 8.676921844482422 23.724112629890442 C 9.322368621826172 23.82549297809601 10.228645324707031 23.531134247779846 10.690509796142578 23.069364547729492 C 10.690509796142578 23.069364547729492 11.003791809082031 22.755663514137268 11.318981170654297 23.07003152370453 C 13.056480407714844 24.804613709449768 16.285430908203125 28.028775572776794 17.941104888916016 29.68154203891754 C 18.270217895507812 30.010361194610596 17.955028533935547 30.322505950927734 17.955028533935547 30.322505950927734 C 17.492591857910156 30.78427565097809 17.197906494140625 31.688472747802734 17.29918670654297 32.33299386501312 C 17.29918670654297 32.33299386501312 18.253814697265625 38.39869570732117 18.253814697265625 38.39869570732117 C 18.355667114257812 39.04343914985657 18.816577911376953 39.19306409358978 19.2784423828125 38.73173904418945 C 19.2784423828125 38.73173904418945 27.67850112915039 30.344960808753967 27.67850112915039 30.344960808753967 C 28.140365600585938 29.88385808467865 28.394996643066406 28.98722004890442 28.24317169189453 28.35270357131958 C 28.24317169189453 28.35270357131958 27.720176696777344 26.159241914749146 27.720176696777344 26.159241914749146 Z M 25.83981704711914 15.323994874954224 C 24.416648864746094 13.903558373451233 24.416648864746094 11.600712656974792 25.83981704711914 10.180276155471802 C 27.262413024902344 8.760061979293823 29.56877899169922 8.760061979293823 30.991947174072266 10.180276155471802 C 32.41454315185547 11.600712656974792 32.41454315185547 13.903558373451233 30.991947174072266 15.323994874954224 C 29.56877899169922 16.744653701782227 27.262413024902344 16.744653701782227 25.83981704711914 15.323994874954224 C 25.83981704711914 15.323994874954224 25.83981704711914 15.323994874954224 25.83981704711914 15.323994874954224 Z M 25.83981704711914 15.323994874954224 C 25.83981704711914 15.323994874954224 25.83981704711914 15.323994874954224 25.83981704711914 15.323994874954224"/></g></svg>